<?xml version="1.0" standalone="no"?>
<!DOCTYPE svg PUBLIC "-//W3C//DTD SVG 20010904//EN"
 "http://www.w3.org/TR/2001/REC-SVG-20010904/DTD/svg10.dtd">
<svg version="1.0" xmlns="http://www.w3.org/2000/svg"
 width="512.000000pt" height="512.000000pt" viewBox="0 0 512.000000 512.000000"
 preserveAspectRatio="xMidYMid meet">
<metadata>
Created by potrace 1.14, written by Peter Selinger 2001-2017
</metadata>
<g transform="translate(0.000000,512.000000) scale(0.100000,-0.100000)"
fill="#000000" stroke="none">
<path d="M1550 3646 c-170 -30 -293 -141 -356 -324 -29 -81 -37 -142 -37 -262
0 -115 7 -160 38 -251 72 -213 245 -333 465 -323 112 6 209 48 276 121 l31 34
12 -58 11 -58 50 -1 50 -1 0 36 c1 56 1 482 1 519 l-1 32 -225 0 c-124 0 -225
-3 -226 -7 -5 -34 -5 -133 0 -134 3 -1 74 -2 156 -3 l150 -1 0 -25 c4 -174
-134 -323 -299 -323 -80 0 -109 7 -160 37 -129 75 -196 247 -183 467 17 291
209 460 436 384 73 -24 160 -110 181 -180 16 -48 17 -50 51 -47 19 2 44 5 55
7 10 2 27 4 37 4 22 1 16 31 -23 116 -24 53 -116 165 -135 165 -4 0 -20 9 -36
20 -73 52 -205 75 -319 56z"/>
<path d="M2180 2913 c10 -38 28 -102 38 -143 11 -41 56 -205 100 -365 44 -159
96 -348 116 -419 19 -71 38 -131 41 -135 4 -3 37 -6 74 -6 l68 0 32 120 c18
66 34 127 36 135 2 8 15 60 30 115 15 55 29 108 30 118 2 9 15 59 29 110 14
50 39 139 55 197 25 93 29 102 36 75 7 -29 134 -503 181 -680 13 -49 30 -111
36 -137 6 -27 14 -49 17 -49 3 -1 36 -2 73 -3 l68 -2 15 56 c9 30 18 63 21 72
3 9 7 25 9 35 6 30 53 206 106 398 27 99 51 189 54 200 2 11 24 96 49 188 26
93 46 173 46 178 0 6 -29 9 -67 7 l-67 -3 -112 -405 c-62 -223 -113 -413 -114
-422 -1 -59 -25 7 -94 255 -43 155 -79 289 -81 297 -2 8 -20 73 -39 144 -20
70 -36 130 -36 132 0 2 -34 4 -75 4 -41 0 -75 -2 -75 -5 0 -6 -72 -274 -90
-335 -11 -39 -90 -326 -95 -350 -17 -68 -48 -170 -52 -166 -3 2 -14 38 -24 78
-27 102 -50 185 -109 398 -28 102 -52 190 -54 195 -1 6 -13 49 -26 98 l-25 87
-72 0 -72 0 19 -67z"/>
<path d="M2280 1705 c-127 -28 -262 -88 -380 -169 -135 -92 -323 -266 -459
-426 -62 -73 -66 -76 -155 -106 -312 -106 -652 -347 -1036 -734 -80 -80 -169
-174 -198 -208 l-54 -62 96 0 95 0 138 141 c290 298 540 483 765 569 29 11 54
20 56 20 1 0 -24 -39 -56 -87 -103 -155 -208 -332 -311 -525 l-63 -118 89 0
88 0 68 123 c380 687 756 1101 1112 1221 178 61 379 28 582 -95 65 -39 214
-152 211 -160 -2 -4 -37 -43 -79 -86 -224 -230 -454 -555 -650 -919 -22 -40
-39 -75 -39 -78 0 -4 41 -5 91 -4 l92 3 69 115 c158 264 304 457 467 621 254
253 474 343 695 283 200 -54 395 -188 648 -444 157 -158 263 -282 396 -462
l87 -116 238 -1 c298 -1 289 -16 119 209 -212 279 -348 436 -557 643 -261 259
-526 440 -745 508 -62 20 -96 24 -200 24 -109 0 -135 -4 -199 -26 l-74 -26
-96 76 c-175 140 -352 240 -501 281 -99 28 -263 35 -350 15z"/>
</g>
</svg>
